<svg width="22" height="22" viewBox="0 0 22 22" fill="none" xmlns="http://www.w3.org/2000/svg">
<path d="M14.5 7.5C15.8924 7.5 17.2277 8.05312 18.2123 9.03769C19.1969 10.0223 19.75 11.3576 19.75 12.75V18.875H16.25V12.75C16.25 12.2859 16.0656 11.8408 15.7374 11.5126C15.4092 11.1844 14.9641 11 14.5 11C14.0359 11 13.5908 11.1844 13.2626 11.5126C12.9344 11.8408 12.75 12.2859 12.75 12.75V18.875H9.25V12.75C9.25 11.3576 9.80312 10.0223 10.7877 9.03769C11.7723 8.05312 13.1076 7.5 14.5 7.5V7.5Z" stroke="black" stroke-width="2" stroke-linecap="round" stroke-linejoin="round"/>
<path d="M5.75 8.375H2.25V18.875H5.75V8.375Z" stroke="black" stroke-width="2" stroke-linecap="round" stroke-linejoin="round"/>
<path d="M4 5.75C4.9665 5.75 5.75 4.9665 5.75 4C5.75 3.0335 4.9665 2.25 4 2.25C3.0335 2.25 2.25 3.0335 2.25 4C2.25 4.9665 3.0335 5.75 4 5.75Z" stroke="black" stroke-width="2" stroke-linecap="round" stroke-linejoin="round"/>
</svg>
