<svg width="22" height="22" viewBox="0 0 22 22" fill="none" xmlns="http://www.w3.org/2000/svg">
<g clip-path="url(#clip0_17_27)">
<path d="M20.625 3.12501C19.7871 3.71605 18.8593 4.16811 17.8775 4.46376C17.3505 3.85783 16.6502 3.42837 15.8712 3.23345C15.0921 3.03852 14.2721 3.08756 13.5218 3.37391C12.7716 3.66026 12.1274 4.17011 11.6764 4.83451C11.2253 5.49891 10.9892 6.2858 11 7.08876V7.96376C9.4623 8.00363 7.93861 7.6626 6.56463 6.97103C5.19065 6.27945 4.00903 5.25882 3.125 4.00001C3.125 4.00001 -0.375 11.875 7.5 15.375C5.69796 16.5982 3.55126 17.2116 1.375 17.125C9.25 21.5 18.875 17.125 18.875 7.06251C18.8742 6.81878 18.8508 6.57565 18.805 6.33626C19.698 5.45557 20.3282 4.34363 20.625 3.12501Z" stroke="black" stroke-width="2" stroke-linecap="round" stroke-linejoin="round"/>
</g>
<defs>
<clipPath id="clip0_17_27">
<rect width="21" height="21" fill="white" transform="translate(0.5 0.5)"/>
</clipPath>
</defs>
</svg>
